<svg xmlns="http://www.w3.org/2000/svg" viewBox="0 0 400 960" fill="none">
  <style>
    text { font-family: 'Inter', -apple-system, BlinkMacSystemFont, system-ui, sans-serif; }
    .mono { font-family: 'IBM Plex Mono', ui-monospace, monospace; }
  </style>

  <defs>
    <symbol id="human" viewBox="0 0 16 16">
      <circle cx="8" cy="4.5" r="3" fill="#e8a87c"/>
      <path d="M 2,15 C 2,10.5 5,9 8,9 C 11,9 14,10.5 14,15" fill="#e8a87c"/>
    </symbol>
    <symbol id="robot" viewBox="0 0 16 16">
      <rect x="3" y="5" width="10" height="9" rx="2" fill="#80f0d8"/>
      <line x1="8" y1="5" x2="8" y2="2" stroke="#80f0d8" stroke-width="1.5"/>
      <circle cx="8" cy="1.5" r="1.5" fill="#80f0d8"/>
      <circle cx="6" cy="9" r="1.2" fill="#303034"/>
      <circle cx="10" cy="9" r="1.2" fill="#303034"/>
      <rect x="5.5" y="11.5" width="5" height="1" rx="0.5" fill="#303034"/>
    </symbol>
  </defs>

  <!-- ═══════════════════════════════════════ -->
  <!-- 1. SPECS BACKLOG                       -->
  <!-- ═══════════════════════════════════════ -->
  <rect x="138" y="32" width="60" height="42" rx="4"
        fill="#303034" stroke="#58585e" stroke-width="0.8"/>
  <rect x="134" y="28" width="60" height="42" rx="4"
        fill="#303034" stroke="#58585e" stroke-width="0.8"/>
  <rect x="130" y="24" width="60" height="42" rx="5"
        fill="#3a3a3e" stroke="#00ccaa" stroke-width="1" stroke-opacity="0.3"/>
  <text x="160" y="47" text-anchor="middle"
        class="mono" font-size="14" font-weight="700" fill="#00ccaa"
        letter-spacing="0.06em">SPECS</text>
  <text x="160" y="60" text-anchor="middle"
        font-size="9" fill="#a0a0a8">backlog</text>

  <!-- Icons + role label -->
  <use href="#human" x="202" y="28" width="26" height="26"/>
  <use href="#robot" x="232" y="28" width="26" height="26"/>
  <text x="230" y="68" text-anchor="middle"
        font-size="11" fill="#b8b8be">PM · Design · Eng</text>

  <!-- Arrow down to PREPARE -->
  <line x1="200" y1="82" x2="200" y2="112"
        stroke="#58585e" stroke-width="2"/>
  <path d="M 196,108 L 200,116 L 204,108" fill="#58585e"/>

  <!-- ═══════════════════════════════════════ -->
  <!-- 2. PREPARE                             -->
  <!-- ═══════════════════════════════════════ -->
  <rect x="100" y="120" width="200" height="56" rx="7"
        fill="#303034" stroke="rgba(0,204,170,0.15)" stroke-width="1"/>
  <text x="200" y="144" text-anchor="middle"
        class="mono" font-size="13" font-weight="600" fill="#f0f0f0"
        letter-spacing="0.03em">PREPARE</text>
  <text x="200" y="162" text-anchor="middle"
        font-size="10" fill="#a0a0a8">validate · plan · verify</text>

  <!-- Self-correcting loop — right side -->
  <path d="M 300,132 C 322,126 322,164 300,158"
        stroke="#00ccaa" stroke-width="1.3" stroke-opacity="0.5" fill="none"/>
  <path d="M 302,155 L 298,162 L 296,154" fill="#00ccaa" fill-opacity="0.5"/>
  <text x="328" y="148" font-size="10" fill="#00ccaa" fill-opacity="0.6">≤3x</text>

  <!-- Agent roles below -->
  <use href="#robot" x="110" y="180" width="24" height="24"/>
  <text x="198" y="196" text-anchor="middle"
        font-size="11" fill="#80f0d8">Architect · Verifier</text>

  <!-- Human Architect review -->
  <use href="#human" x="272" y="180" width="24" height="24"/>
  <text x="300" y="216" text-anchor="middle"
        font-size="11" fill="#e8a87c">Architect reviews</text>

  <!-- Arrow down to GATE 1 -->
  <line x1="200" y1="220" x2="200" y2="244"
        stroke="#58585e" stroke-width="2"/>

  <!-- ═══════════════════════════════════════ -->
  <!-- 3. GATE 1                              -->
  <!-- ═══════════════════════════════════════ -->
  <rect x="172" y="248" width="56" height="36" rx="4"
        fill="#1a3a35" stroke="#00ccaa" stroke-width="1.2" stroke-opacity="0.4"/>
  <text x="200" y="270" text-anchor="middle"
        class="mono" font-size="9" font-weight="700" fill="#00ccaa"
        letter-spacing="0.04em">GATE 1</text>
  <use href="#human" x="236" y="250" width="24" height="24"/>
  <use href="#robot" x="262" y="250" width="24" height="24"/>

  <!-- Arrow down to EXECUTE -->
  <line x1="200" y1="288" x2="200" y2="314"
        stroke="#58585e" stroke-width="2"/>
  <path d="M 196,310 L 200,318 L 204,310" fill="#58585e"/>

  <!-- ═══════════════════════════════════════ -->
  <!-- 4. EXECUTE                             -->
  <!-- ═══════════════════════════════════════ -->
  <rect x="44" y="322" width="312" height="240" rx="8"
        fill="#303034" fill-opacity="0.5"
        stroke="rgba(0,204,170,0.12)" stroke-width="1"/>

  <!-- Header -->
  <text x="200" y="346" text-anchor="middle"
        class="mono" font-size="13" font-weight="600" fill="#f0f0f0"
        letter-spacing="0.04em">EXECUTE</text>
  <text x="200" y="362" text-anchor="middle"
        font-size="10" fill="#a0a0a8">N parallel tasks · isolated worktrees</text>

  <!-- Track 1 — y=384 -->
  <circle cx="120" cy="384" r="13" fill="#3a3a3e" stroke="rgba(0,204,170,0.25)" stroke-width="1.2"/>
  <text x="120" y="388" text-anchor="middle" font-size="11" fill="#80f0d8" font-weight="600">DEV</text>
  <line x1="136" y1="384" x2="174" y2="384" stroke="#58585e" stroke-width="1"/>
  <path d="M 170,381 L 177,384 L 170,387" fill="#58585e"/>
  <circle cx="200" cy="384" r="13" fill="#3a3a3e" stroke="rgba(0,204,170,0.25)" stroke-width="1.2"/>
  <text x="200" y="388" text-anchor="middle" font-size="11" fill="#80f0d8" font-weight="600">REV</text>
  <line x1="216" y1="384" x2="254" y2="384" stroke="#58585e" stroke-width="1"/>
  <path d="M 250,381 L 257,384 L 250,387" fill="#58585e"/>
  <circle cx="276" cy="384" r="10" fill="#1a3a35" stroke="#00ccaa" stroke-width="1" stroke-opacity="0.4"/>
  <text x="276" y="388" text-anchor="middle" font-size="10" fill="#00ccaa" font-weight="700">✓</text>

  <!-- Track 2 — y=418 -->
  <circle cx="120" cy="418" r="13" fill="#3a3a3e" stroke="rgba(0,204,170,0.25)" stroke-width="1.2"/>
  <text x="120" y="422" text-anchor="middle" font-size="11" fill="#80f0d8" font-weight="600">DEV</text>
  <line x1="136" y1="418" x2="174" y2="418" stroke="#58585e" stroke-width="1"/>
  <path d="M 170,415 L 177,418 L 170,421" fill="#58585e"/>
  <circle cx="200" cy="418" r="13" fill="#3a3a3e" stroke="rgba(0,204,170,0.25)" stroke-width="1.2"/>
  <text x="200" y="422" text-anchor="middle" font-size="11" fill="#80f0d8" font-weight="600">REV</text>
  <line x1="216" y1="418" x2="254" y2="418" stroke="#58585e" stroke-width="1"/>
  <path d="M 250,415 L 257,418 L 250,421" fill="#58585e"/>
  <circle cx="276" cy="418" r="10" fill="#1a3a35" stroke="#00ccaa" stroke-width="1" stroke-opacity="0.4"/>
  <text x="276" y="422" text-anchor="middle" font-size="10" fill="#00ccaa" font-weight="700">✓</text>

  <!-- Track 3 — y=452 -->
  <circle cx="120" cy="452" r="13" fill="#3a3a3e" stroke="rgba(0,204,170,0.25)" stroke-width="1.2"/>
  <text x="120" y="456" text-anchor="middle" font-size="11" fill="#80f0d8" font-weight="600">DEV</text>
  <line x1="136" y1="452" x2="174" y2="452" stroke="#58585e" stroke-width="1"/>
  <path d="M 170,449 L 177,452 L 170,455" fill="#58585e"/>
  <circle cx="200" cy="452" r="13" fill="#3a3a3e" stroke="rgba(0,204,170,0.25)" stroke-width="1.2"/>
  <text x="200" y="456" text-anchor="middle" font-size="11" fill="#80f0d8" font-weight="600">REV</text>
  <line x1="216" y1="452" x2="254" y2="452" stroke="#58585e" stroke-width="1"/>
  <path d="M 250,449 L 257,452 L 250,455" fill="#58585e"/>
  <circle cx="276" cy="452" r="10" fill="#1a3a35" stroke="#00ccaa" stroke-width="1" stroke-opacity="0.4"/>
  <text x="276" y="456" text-anchor="middle" font-size="10" fill="#00ccaa" font-weight="700">✓</text>

  <!-- Track 4 — y=486 -->
  <circle cx="120" cy="486" r="13" fill="#3a3a3e" stroke="rgba(0,204,170,0.25)" stroke-width="1.2"/>
  <text x="120" y="490" text-anchor="middle" font-size="11" fill="#80f0d8" font-weight="600">DEV</text>
  <line x1="136" y1="486" x2="174" y2="486" stroke="#58585e" stroke-width="1"/>
  <path d="M 170,483 L 177,486 L 170,489" fill="#58585e"/>
  <circle cx="200" cy="486" r="13" fill="#3a3a3e" stroke="rgba(0,204,170,0.25)" stroke-width="1.2"/>
  <text x="200" y="490" text-anchor="middle" font-size="11" fill="#80f0d8" font-weight="600">REV</text>
  <line x1="216" y1="486" x2="254" y2="486" stroke="#58585e" stroke-width="1"/>
  <path d="M 250,483 L 257,486 L 250,489" fill="#58585e"/>
  <circle cx="276" cy="486" r="10" fill="#1a3a35" stroke="#00ccaa" stroke-width="1" stroke-opacity="0.4"/>
  <text x="276" y="490" text-anchor="middle" font-size="10" fill="#00ccaa" font-weight="700">✓</text>

  <!-- Track 5 — y=520 -->
  <circle cx="120" cy="520" r="13" fill="#3a3a3e" stroke="rgba(0,204,170,0.25)" stroke-width="1.2"/>
  <text x="120" y="524" text-anchor="middle" font-size="11" fill="#80f0d8" font-weight="600">DEV</text>
  <line x1="136" y1="520" x2="174" y2="520" stroke="#58585e" stroke-width="1"/>
  <path d="M 170,517 L 177,520 L 170,523" fill="#58585e"/>
  <circle cx="200" cy="520" r="13" fill="#3a3a3e" stroke="rgba(0,204,170,0.25)" stroke-width="1.2"/>
  <text x="200" y="524" text-anchor="middle" font-size="11" fill="#80f0d8" font-weight="600">REV</text>
  <line x1="216" y1="520" x2="254" y2="520" stroke="#58585e" stroke-width="1"/>
  <path d="M 250,517 L 257,520 L 250,523" fill="#58585e"/>
  <circle cx="276" cy="520" r="10" fill="#1a3a35" stroke="#00ccaa" stroke-width="1" stroke-opacity="0.4"/>
  <text x="276" y="524" text-anchor="middle" font-size="10" fill="#00ccaa" font-weight="700">✓</text>

  <!-- Column labels -->
  <text x="120" y="546" text-anchor="middle"
        font-size="9" fill="#80f0d8" fill-opacity="0.6">develop</text>
  <text x="200" y="546" text-anchor="middle"
        font-size="9" fill="#80f0d8" fill-opacity="0.6">review</text>
  <text x="276" y="546" text-anchor="middle"
        font-size="9" fill="#00ccaa" fill-opacity="0.5">test</text>

  <!-- Human escalation -->
  <use href="#human" x="142" y="548" width="22" height="22"/>
  <text x="220" y="562" text-anchor="middle"
        font-size="10" fill="#e8a87c">~5% human escalation</text>

  <!-- Arrow down to GATE 2 -->
  <line x1="200" y1="574" x2="200" y2="598"
        stroke="#58585e" stroke-width="2"/>

  <!-- ═══════════════════════════════════════ -->
  <!-- 5. GATE 2                              -->
  <!-- ═══════════════════════════════════════ -->
  <rect x="172" y="602" width="56" height="36" rx="4"
        fill="#1a3a35" stroke="#00ccaa" stroke-width="1.2" stroke-opacity="0.4"/>
  <text x="200" y="624" text-anchor="middle"
        class="mono" font-size="9" font-weight="700" fill="#00ccaa"
        letter-spacing="0.04em">GATE 2</text>
  <use href="#human" x="236" y="605" width="24" height="24"/>
  <use href="#robot" x="262" y="605" width="24" height="24"/>

  <!-- Arrow down to INTEGRATE -->
  <line x1="200" y1="642" x2="200" y2="668"
        stroke="#58585e" stroke-width="2"/>
  <path d="M 196,664 L 200,672 L 204,664" fill="#58585e"/>

  <!-- ═══════════════════════════════════════ -->
  <!-- 6. INTEGRATE                           -->
  <!-- ═══════════════════════════════════════ -->
  <rect x="100" y="676" width="200" height="56" rx="7"
        fill="#303034" stroke="rgba(0,204,170,0.15)" stroke-width="1"/>
  <text x="200" y="700" text-anchor="middle"
        class="mono" font-size="13" font-weight="600" fill="#f0f0f0"
        letter-spacing="0.03em">INTEGRATE</text>
  <text x="200" y="718" text-anchor="middle"
        font-size="10" fill="#a0a0a8">coherence · merge · ship</text>

  <!-- Agent roles below -->
  <use href="#robot" x="110" y="736" width="24" height="24"/>
  <text x="218" y="752" text-anchor="middle"
        font-size="11" fill="#80f0d8">Checker · Integrator · Guardian</text>

  <!-- Arrow down to CODE IN MAIN -->
  <line x1="200" y1="762" x2="200" y2="788"
        stroke="#58585e" stroke-width="2"/>
  <path d="M 196,784 L 200,792 L 204,784" fill="#58585e"/>

  <!-- ═══════════════════════════════════════ -->
  <!-- 7. CODE IN MAIN                        -->
  <!-- ═══════════════════════════════════════ -->
  <rect x="152" y="796" width="96" height="44" rx="6"
        fill="#1a3a35" stroke="#00ccaa" stroke-width="1.2" stroke-opacity="0.5"/>
  <text x="200" y="814" text-anchor="middle"
        class="mono" font-size="10" font-weight="700" fill="#00ccaa"
        letter-spacing="0.03em">CODE IN</text>
  <text x="200" y="828" text-anchor="middle"
        class="mono" font-size="10" font-weight="700" fill="#00ccaa"
        letter-spacing="0.03em">MAIN</text>

  <!-- Human judgment -->
  <use href="#human" x="256" y="802" width="24" height="24"/>
  <text x="284" y="840" text-anchor="middle"
        font-size="11" fill="#e8a87c">Human judgment</text>

  <!-- ═══════════════════════════════════════ -->
  <!-- NEXT SPEC LOOP — right side            -->
  <!-- ═══════════════════════════════════════ -->
  <path d="M 252,818 C 374,818 374,46 192,46"
        stroke="#58585e" stroke-width="1.5"
        stroke-dasharray="8,5" fill="none"/>
  <path d="M 195,52 L 189,42 L 185,52" fill="#58585e"/>
  <text x="378" y="400" text-anchor="middle"
        font-size="10" fill="#a0a0a8"
        writing-mode="tb" glyph-orientation-vertical="0"
        letter-spacing="0.05em">next spec from backlog</text>

  <!-- ═══════════════════════════════════════ -->
  <!-- FAILURE RECOVERY LOOP — left side      -->
  <!-- ═══════════════════════════════════════ -->
  <path d="M 172,620 C 18,620 18,266 172,266"
        stroke="#00ccaa" stroke-width="1.3" stroke-opacity="0.25"
        stroke-dasharray="6,4" fill="none"/>
  <path d="M 169,272 L 172,262 L 175,272" fill="#00ccaa" fill-opacity="0.3"/>

  <!-- Failure recovery labels -->
  <use href="#robot" x="16" y="420" width="24" height="24"/>
  <text x="28" y="458"
        font-size="10" fill="#80f0d8" fill-opacity="0.7"
        text-anchor="middle"
        writing-mode="tb" glyph-orientation-vertical="0">Debugger → Supervisor</text>
  <text x="12" y="356"
        font-size="9" fill="#a0a0a8"
        text-anchor="middle"
        writing-mode="tb" glyph-orientation-vertical="0">retry · escalate model · replan · escalate to human</text>

  <!-- ═══════════════════════════════════════ -->
  <!-- LEGEND — bottom center                 -->
  <!-- ═══════════════════════════════════════ -->
  <use href="#human" x="120" y="916" width="24" height="24"/>
  <text x="150" y="932" font-size="11" fill="#e8a87c" font-weight="500">Human</text>

  <use href="#robot" x="216" y="916" width="24" height="24"/>
  <text x="246" y="932" font-size="11" fill="#80f0d8" font-weight="500">Agent</text>
</svg>
